HIERARCHY
ROOT Hips
{
	OFFSET 0.000000 0.000000 0.000000
	CHANNELS 6 Xposition Yposition Zposition Zrotation Yrotation Xrotation 
	JOINT LowerBack
	{
		OFFSET 0.000000 0.000000 0.000000
		CHANNELS 3 Zrotation Yrotation Xrotation
		JOINT Spine
		{
			OFFSET 0.028270 2.035590 -0.193380
			CHANNELS 3 Zrotation Yrotation Xrotation
			JOINT Spine1
			{
				OFFSET 0.056720 2.048850 -0.042750
				CHANNELS 3 Zrotation Yrotation Xrotation
				JOINT Neck
				{
					OFFSET 0.000000 0.000000 0.000000
					CHANNELS 3 Zrotation Yrotation Xrotation
					JOINT Neck1
					{
						OFFSET -0.054170 1.746240 0.172020
						CHANNELS 3 Zrotation Yrotation Xrotation
						JOINT Head
						{
							OFFSET 0.104070 1.761360 -0.123970
							CHANNELS 3 Zrotation Yrotation Xrotation
							End Site
							{
								OFFSET 0.000000 0.000000 0.000000
							}
						}
					}
				}
				JOINT LeftShoulder
				{
					OFFSET 0.000000 0.000000 0.000000
					CHANNELS 3 Zrotation Yrotation Xrotation
					JOINT LeftArm
					{
						OFFSET 3.362410 1.200890 -0.311210
						CHANNELS 3 Zrotation Yrotation Xrotation
						JOINT LeftForeArm
						{
							OFFSET 4.983000 -0.000000 -0.000000
							CHANNELS 3 Zrotation Yrotation Xrotation
							JOINT LeftHand
							{
								OFFSET 3.483560 -0.000000 -0.000000
								CHANNELS 3 Zrotation Yrotation Xrotation
								JOINT LeftFingerBase
								{
									OFFSET 0.000000 0.000000 0.000000
									CHANNELS 3 Zrotation Yrotation Xrotation
									JOINT LeftHandIndex1
									{
										OFFSET 0.715260 -0.000000 -0.000000
										CHANNELS 3 Zrotation Yrotation Xrotation
										End Site
										{
											OFFSET 0.000000 0.000000 0.000000
										}
									}
								}
								JOINT LThumb
								{
									OFFSET 0.000000 0.000000 0.000000
									CHANNELS 3 Zrotation Yrotation Xrotation
									End Site
									{
										OFFSET 0.000000 0.000000 0.000000
									}
								}
							}
						}
					}
				}
				JOINT RightShoulder
				{
					OFFSET 0.000000 0.000000 0.000000
					CHANNELS 3 Zrotation Yrotation Xrotation
					JOINT RightArm
					{
						OFFSET -3.136600 1.374050 -0.404650
						CHANNELS 3 Zrotation Yrotation Xrotation
						JOINT RightForeArm
						{
							OFFSET -5.241900 -0.000000 -0.000000
							CHANNELS 3 Zrotation Yrotation Xrotation
							JOINT RightHand
							{
								OFFSET -3.444170 -0.000000 -0.000000
								CHANNELS 3 Zrotation Yrotation Xrotation
								JOINT RightFingerBase
								{
									OFFSET 0.000000 0.000000 0.000000
									CHANNELS 3 Zrotation Yrotation Xrotation
									JOINT RightHandIndex1
									{
										OFFSET -0.622530 -0.000000 -0.000000
										CHANNELS 3 Zrotation Yrotation Xrotation
										End Site
										{
											OFFSET 0.000000 0.000000 0.000000
										}
									}
								}
								JOINT RThumb
								{
									OFFSET 0.000000 0.000000 0.000000
									CHANNELS 3 Zrotation Yrotation Xrotation
									End Site
									{
										OFFSET 0.000000 0.000000 0.000000
									}
								}
							}
						}
					}
				}
			}
		}
	}
}
}
MOTION
Frames: 17
Frame Time: 0.008333
3.983861 15.292054 -2.092082 -171.704374 71.101608 -143.710313 -0.025193 -1.223978 11.719859 -0.275764 -0.963989 -0.662631 -3.742951 -0.878534 -1.376218 3.140761 -3.915995 -2.450211 -1.665328 -0.167204 0.962648 0.000000 0.000000 0.000000 2.892990 4.092204 -0.171105 -71.168802 -21.762431 10.271208 -179.641847 -86.823872 179.965016 3.819095 5.335489 0.171919 -0.128815 0.377407 0.000000 0.000000 0.000000 0.000000 0.000000 0.000000 0.000000 -1.416280 -0.036470 1.409976 74.082113 -17.977227 18.946247 0.217416 71.132240 -0.051107 -17.031782 2.635748 -0.429892 0.187430 -0.210167 0.000000 0.000000 0.000000 0.000000 0.000000 0.000000 0.000000 
4.148326 15.357487 -2.159724 -172.403741 70.302888 -144.270227 0.398566 -1.415216 11.585973 -0.175068 -1.178623 -0.683131 -3.687021 -1.096337 -1.363073 3.112458 -4.447867 -2.474499 -1.695272 -0.169433 0.962040 0.000000 0.000000 0.000000 3.758147 3.904648 -0.346717 -71.095315 -22.561093 10.088288 -179.551368 -85.307226 179.965895 3.666645 5.112481 0.157217 -0.124155 0.393445 0.000000 0.000000 0.000000 0.000000 0.000000 0.000000 0.000000 -1.336395 -0.694948 1.430738 73.390549 -19.574332 19.468332 0.212857 72.293197 -0.049280 -16.760169 2.806914 -0.448258 0.185117 -0.208944 0.000000 0.000000 0.000000 0.000000 0.000000 0.000000 0.000000 
4.314928 15.430937 -2.230474 -173.002206 69.547286 -144.729920 0.839269 -1.596349 11.445620 -0.071721 -1.385594 -0.703569 -3.635181 -1.307283 -1.334733 3.073578 -5.034038 -2.519745 -1.719619 -0.171044 0.955571 0.000000 0.000000 0.000000 4.523020 3.780027 -0.504167 -70.857694 -23.260162 9.907100 -179.457942 -83.784342 179.967130 3.483443 4.856810 0.140922 -0.119729 0.409020 0.000000 0.000000 0.000000 0.000000 0.000000 0.000000 0.000000 -1.295658 -1.404994 1.431564 72.715789 -21.079360 19.931410 0.206372 73.540758 -0.047554 -16.441781 2.924794 -0.456628 0.182505 -0.207871 0.000000 0.000000 0.000000 0.000000 0.000000 0.000000 0.000000 
4.483945 15.511496 -2.304423 -173.505108 68.839827 -145.089020 1.292606 -1.766486 11.289350 0.034153 -1.583814 -0.726151 -3.584731 -1.510361 -1.291503 3.024853 -5.656650 -2.581504 -1.737547 -0.172047 0.944627 0.000000 0.000000 0.000000 5.196546 3.710719 -0.644483 -70.493024 -23.845117 9.710981 -179.361011 -82.273723 179.968976 3.246100 4.557963 0.122331 -0.114716 0.424423 0.000000 0.000000 0.000000 0.000000 0.000000 0.000000 0.000000 -1.296382 -2.148465 1.415666 72.073275 -22.483575 20.330699 0.198850 74.817474 -0.045851 -16.074991 2.980051 -0.454003 0.179523 -0.206582 0.000000 0.000000 0.000000 0.000000 0.000000 0.000000 0.000000 
4.655525 15.598286 -2.381843 -173.911648 68.184065 -145.342368 1.756845 -1.925502 11.109981 0.142951 -1.772932 -0.752197 -3.533478 -1.705211 -1.232264 2.966154 -6.304853 -2.658788 -1.748147 -0.172390 0.929568 0.000000 0.000000 0.000000 5.784245 3.698633 -0.768574 -70.036632 -24.310578 9.494972 -179.260336 -80.791475 179.971592 2.941131 4.219363 0.101642 -0.108502 0.439674 0.000000 0.000000 0.000000 0.000000 0.000000 0.000000 0.000000 -1.342006 -2.914405 1.385744 71.470968 -23.773118 20.676562 0.190838 76.073449 -0.044135 -15.674280 2.973247 -0.441384 0.176288 -0.204822 0.000000 0.000000 0.000000 0.000000 0.000000 0.000000 0.000000 
4.829866 15.690313 -2.462601 -174.235040 67.582391 -145.497629 2.226952 -2.073579 10.902994 0.254281 -1.952802 -0.782893 -3.479432 -1.891623 -1.157979 2.899180 -6.966485 -2.751016 -1.751235 -0.172059 0.910580 0.000000 0.000000 0.000000 6.298600 3.743388 -0.877936 -69.525969 -24.649442 9.260167 -179.156134 -79.346629 179.975026 2.565666 3.851905 0.080152 -0.100670 0.454667 -0.000000 0.000000 0.000000 0.000000 0.000000 0.000000 0.000000 -1.430844 -3.689928 1.344700 70.914645 -24.943608 20.974586 0.182624 77.274160 -0.042428 -15.259172 2.914354 -0.421268 0.172969 -0.202527 0.000000 0.000000 0.000000 0.000000 0.000000 0.000000 0.000000 
5.006915 15.786590 -2.546669 -174.482227 67.033953 -145.558240 2.696727 -2.211038 10.667010 0.367246 -2.123307 -0.819035 -3.421698 -2.069351 -1.071122 2.826781 -7.629908 -2.857835 -1.747060 -0.171064 0.887742 0.000000 0.000000 0.000000 6.754904 3.841851 -0.974160 -68.996261 -24.854751 9.013130 -179.049508 -77.947632 179.979208 2.128057 3.470967 0.059160 -0.091083 0.469176 -0.000000 0.000000 0.000000 0.000000 0.000000 0.000000 0.000000 -1.558137 -4.461934 1.295301 70.408234 -25.998413 21.227596 0.174359 78.398956 -0.040762 -14.852833 2.820981 -0.397257 0.169791 -0.199804 0.000000 0.000000 0.000000 0.000000 0.000000 0.000000 0.000000 
5.186706 15.886093 -2.633582 -174.678683 66.538272 -145.546794 3.154824 -2.338377 10.403566 0.479504 -2.284396 -0.861299 -3.360370 -2.238150 -0.976547 2.754970 -8.279931 -2.978172 -1.736979 -0.169497 0.861324 0.000000 0.000000 0.000000 7.172952 3.986649 -1.058546 -68.478019 -24.918823 8.764745 -178.942323 -76.601394 179.983951 1.646251 3.094246 0.040361 -0.079909 0.482892 0.000000 0.000000 0.000000 0.000000 0.000000 0.000000 0.000000 -1.710728 -5.213122 1.239865 69.956076 -26.954225 21.425611 0.166101 79.444841 -0.039198 -14.472887 2.714177 -0.372848 0.166918 -0.196917 0.000000 0.000000 0.000000 0.000000 0.000000 0.000000 0.000000 
5.369118 15.987793 -2.722910 -174.839767 66.092327 -145.479786 3.593632 -2.455786 10.118586 0.589365 -2.435610 -0.909043 -3.296013 -2.397313 -0.878074 2.687293 -8.911017 -3.112282 -1.721755 -0.167391 0.831142 0.000000 0.000000 0.000000 7.566384 4.168693 -1.132533 -67.990869 -24.838912 8.526825 -178.836880 -75.310542 179.988975 1.146297 2.740365 0.024856 -0.067614 0.495438 -0.000000 0.000000 0.000000 0.000000 0.000000 0.000000 0.000000 -1.880910 -5.935600 1.180999 69.561397 -27.820900 21.567271 0.157890 80.412424 -0.037799 -14.139003 2.616926 -0.351640 0.164573 -0.194192 0.000000 0.000000 0.000000 0.000000 0.000000 0.000000 0.000000 
5.554048 16.090679 -2.813949 -174.993119 65.693665 -145.386881 4.000542 -2.563629 9.819379 0.693612 -2.576639 -0.961717 -3.230452 -2.546239 -0.781392 2.630462 -9.512222 -3.258728 -1.703360 -0.164884 0.797530 0.000000 0.000000 0.000000 7.951806 4.375629 -1.197067 -67.549832 -24.613544 8.313891 -178.735987 -74.079989 179.993961 0.657043 2.423709 0.012943 -0.054853 0.506499 -0.000000 0.000000 0.000000 0.000000 0.000000 0.000000 0.000000 -2.052119 -6.615830 1.120423 69.228630 -28.622295 21.636773 0.149724 81.317954 -0.036607 -13.856626 2.549153 -0.335931 0.162803 -0.192009 0.000000 0.000000 0.000000 0.000000 0.000000 0.000000 0.000000 
5.741290 16.193785 -2.906132 -175.153698 65.338789 -145.289112 4.369585 -2.662021 9.516475 0.790446 -2.706891 -1.017655 -3.165450 -2.684052 -0.690704 2.587817 -10.081468 -3.416798 -1.682858 -0.162042 0.760545 0.000000 0.000000 0.000000 8.337036 4.593053 -1.252872 -67.158310 -24.243487 8.136056 -178.642540 -72.912358 179.998582 0.207734 2.155972 0.004623 -0.042382 0.515770 0.000000 0.000000 0.000000 0.000000 0.000000 0.000000 0.000000 -2.215784 -7.249256 1.060367 68.962050 -29.371885 21.628753 0.141613 82.175273 -0.035653 -13.630003 2.528321 -0.327721 0.161656 -0.190711 0.000000 0.000000 0.000000 0.000000 0.000000 0.000000 0.000000 
5.930601 16.296024 -2.998851 -175.341327 65.024103 -145.213320 4.692141 -2.751501 9.219781 0.877223 -2.826327 -1.075267 -3.103357 -2.810425 -0.610012 2.563826 -10.614345 -3.584788 -1.661865 -0.158988 0.720586 0.000000 0.000000 0.000000 8.730130 4.809194 -1.300501 -66.817870 -23.734891 8.005702 -178.559347 -71.813194 -179.997439 -0.176586 1.942488 -0.000802 -0.030950 0.523091 -0.000000 0.000000 0.000000 0.000000 0.000000 0.000000 0.000000 -2.359418 -7.829553 1.001918 68.765020 -30.089107 21.531462 0.133513 83.006129 -0.034937 -13.449464 2.565250 -0.327708 0.161003 -0.190578 0.000000 0.000000 0.000000 0.000000 0.000000 0.000000 0.000000 
6.121758 16.396490 -3.091645 -175.561508 64.744868 -145.174579 4.967522 -2.832553 8.940486 0.953170 -2.934872 -1.132360 -3.046084 -2.925059 -0.541960 2.560192 -11.112468 -3.760978 -1.641170 -0.155784 0.677999 0.000000 0.000000 0.000000 9.131892 5.010658 -1.340422 -66.523525 -23.093283 7.928021 -178.488922 -70.786692 -179.994325 -0.476844 1.785341 -0.004030 -0.021177 0.528344 -0.000000 0.000000 0.000000 0.000000 0.000000 0.000000 0.000000 -2.477688 -8.357001 0.946715 68.640488 -30.781601 21.344697 0.125409 83.825185 -0.034447 -13.304939 2.666651 -0.336295 0.160709 -0.191799 0.000000 0.000000 0.000000 0.000000 0.000000 0.000000 0.000000 
6.314514 16.494114 -3.184147 -175.824777 64.497064 -145.192410 5.193598 -2.906515 8.687866 1.017176 -3.033507 -1.186926 -2.995411 -3.028745 -0.488134 2.579082 -11.575032 -3.943286 -1.621822 -0.152522 0.633285 0.000000 0.000000 0.000000 9.543141 5.191116 -1.372911 -66.271494 -22.330910 7.910288 -178.433063 -69.839261 -179.992185 -0.682502 1.680876 -0.005759 -0.013519 0.531579 -0.000000 0.000000 0.000000 0.000000 0.000000 0.000000 0.000000 -2.563001 -8.830620 0.895073 68.587577 -31.459103 21.066907 0.117244 84.649166 -0.034141 -13.176207 2.831646 -0.352678 0.160500 -0.194449 0.000000 0.000000 0.000000 0.000000 0.000000 0.000000 0.000000 
6.508608 16.588009 -3.276095 -176.130232 64.275103 -145.276808 5.374348 -2.974888 8.471560 1.069717 -3.123463 -1.236627 -2.952333 -3.122604 -0.448846 2.620573 -12.005644 -4.129695 -1.604147 -0.149242 0.586892 0.000000 0.000000 0.000000 9.961642 5.344156 -1.398621 -66.057779 -21.457461 7.953008 -178.393068 -68.975586 -179.991046 -0.791540 1.623581 -0.006586 -0.008150 0.532883 -0.000000 0.000000 0.000000 0.000000 0.000000 0.000000 0.000000 -2.613648 -9.254632 0.847760 68.604235 -32.119195 20.706637 0.108988 85.484742 -0.033974 -13.045321 3.055752 -0.375561 0.160124 -0.198505 0.000000 0.000000 0.000000 0.000000 0.000000 0.000000 0.000000 
6.703747 16.677199 -3.367391 -176.476077 64.073253 -145.436778 5.514003 -3.040008 8.299493 1.111492 -3.206940 -1.279325 -2.917404 -3.208773 -0.423433 2.684729 -12.406345 -4.317972 -1.588409 -0.145986 0.539365 0.000000 0.000000 0.000000 10.384829 5.468808 -1.418068 -65.880378 -20.485093 8.055612 -178.369420 -68.200994 -179.990844 -0.809716 1.605818 -0.006613 -0.005027 0.532419 -0.000000 0.000000 0.000000 0.000000 0.000000 0.000000 0.000000 -2.628009 -9.632925 0.804552 68.683964 -32.756639 20.277216 0.100596 86.334530 -0.033901 -12.894542 3.330180 -0.403246 0.159323 -0.203851 0.000000 0.000000 0.000000 0.000000 0.000000 0.000000 0.000000 
6.899675 16.760857 -3.458067 -176.856506 63.885180 -145.676754 5.618191 -3.104470 8.178624 1.143663 -3.286537 -1.313020 -2.890589 -3.289849 -0.410543 2.770939 -12.780150 -4.506099 -1.574619 -0.142779 0.491197 0.000000 0.000000 0.000000 10.810976 5.565447 -1.432077 -65.739984 -19.424248 8.214029 -178.361901 -67.517771 -179.991433 -0.750307 1.619001 -0.006234 -0.003822 0.530402 -0.000000 0.000000 0.000000 0.000000 0.000000 0.000000 0.000000 -2.606474 -9.971099 0.765227 68.818268 -33.360676 19.796688 0.092076 87.193398 -0.033849 -12.710091 3.644102 -0.433532 0.157882 -0.210303 0.000000 0.000000 0.000000 0.000000 0.000000 0.000000 0.000000 
